<?xml version="1.0" encoding="utf-8"?>
<!-- Generator: Adobe Illustrator 21.0.0, SVG Export Plug-In . SVG Version: 6.00 Build 0)  -->
<svg version="1.1" id="katman_1" xmlns="http://www.w3.org/2000/svg" xmlns:xlink="http://www.w3.org/1999/xlink" x="0px" y="0px"
	 viewBox="0 0 860 819" style="enable-background:new 0 0 860 819;" xml:space="preserve">
<g>
	<g>
		<g>
			<path d="M850.1,110.8c-4-12-16.6-33.4-27.9-47.7c-11.3-14.3-29.8-31.2-41-37.6c-11.2-6.4-62.5,7.6-88.4,19.5l-18.9,8.6
				c-25.9,11.9-47.5,21.7-47.9,22c-0.4,0.2-3.5,0-5.8-1c-2.4-1-31.2-8.1-59-14.6l-49.7-11.6c-27.8-6.5-59.8-12.7-71.2-13.8
				c-11.4-1.1-59.9,7.1-87.7,13.4l-53.2,12.2c-27.8,6.4-52.5,12.2-54.8,12.9c-2.4,0.7-8.9,3.1-9.4,2.8c-0.4-0.3-22.8-10.5-48.8-22.4
				l-18.9-8.6c-26-11.9-58-22.4-71.1-23.3c-13.2-1-46.9,27.1-58.3,41.4C26.5,77.4,14,98.9,9.9,110.8c-4,11.9,17.8,59,33.8,82.6
				l32.6,48.4c15.9,23.6,24.7,51,19.5,60.7c-5.2,9.8-12.4,27.2-15.9,38.6c-3.5,11.5,0.5,61.8,5.3,90l10.2,60
				c4.8,28.1,13.7,60.5,19.9,72c6.2,11.5,55.1,31.8,82.8,38.7l12.4,3.1c27.7,6.9,64,31.4,80.6,54.5l22.4,30.9
				c16.7,23.1,38.4,48.5,48.3,56.4c9.9,7.9,51.7,14.4,68.1,14.4c16.5,0,39.9-2.8,52.1-6.2c12.2-3.4,47.7-41.5,64.3-64.6l22-30.5
				c16.7-23.1,53-47.7,80.6-54.7l12.9-3.2c27.7-6.9,59.3-18.4,70.3-25.4c11-7,27.5-57.4,32.3-85.5l10.2-60c4.8-28.1,8.4-60.9,8.1-73
				c-0.3-12-13.4-45.8-18.7-55.6c-5.2-9.7,3.6-37.1,19.5-60.7l32.6-48.4C832.2,169.8,854.1,122.8,850.1,110.8z M74.6,165.8
				c-14.2-21-26.4-39.8-27.1-41.7c0,0,0,0,0-2.2c0-2.7,0-2.7,0-2.7c1.1-2.5,11.3-16.2,22.6-30.5c11.3-14.3,22.4-26.8,24.7-27.9
				c2.2-1.1,29.6,9.8,55.5,21.6l4.1,1.9c25.9,11.9,46.8,22.2,46.3,22.9c-0.5,0.7-12.6,23.3-26,48.4l-22.8,42.6
				C138.3,223.3,88.7,186.8,74.6,165.8z M742.4,360.5c0.3,6.9-3.3,35.7-8.1,63.8l-10.2,60c-4.8,28.1-10.4,54-12.5,57.5
				c-2.1,3.5-26.1,12-46.7,17.2c-20.6,5.2-36.8,6-36,1.9c0.8-4.1-11.2-33.1-26.6-55.5c-15.4-22.4-28-40.1-28-39.4
				c0,0.8,3.5,19.2,7.5,39.2c3.9,20,6.8,41.3,6.4,47.4c-0.4,6.1-7.4,20.2-9.7,23.4c-2.3,3.2-12.5,17.4-22.8,31.6
				c-10.3,14.2-30.8,42.7-45.7,63.4c-14.9,20.6-30.6,40.1-34.9,43.4c-4.3,3.2-28.5,5.9-45,5.9c-16.5,0-34.2-1.3-39.3-3
				c-5.1-1.6-25.8-25.8-40.9-46.6c-15-20.8-35.7-49.5-45.9-63.6c-10.2-14.2-20.3-28.2-22.5-31.2c-2.2-3-5.7-10.2-7.9-15.9
				c-2.2-5.7,0.9-34.7,4.8-54.7c3.9-20,7.2-36.9,7.4-37.8c0.1-0.8-12.4,15.5-27.9,37.9c-15.4,22.4-27.8,44.1-27.5,48.1
				c0.3,4-14.5,10.4-35.1,5.3c-20.6-5.1-40.2-11.2-43.5-13.6c-3.3-2.4-10.9-32.8-15.7-60.9l-10.2-60c-4.8-28.1-8.4-56.8-8.1-63.8
				c0.3-7,8-26.6,11.7-33.6c3.8-7,17.9-33.4,31.3-58.5l50-93.5c13.5-25.1,27.8-49.2,32-53.5c4.1-4.3,15.5-9.6,16-9.7
				c0.5-0.1,23.7-5.4,51.5-11.8l51.4-11.8c27.8-6.4,57.1-12.1,65-12.8c8-0.6,47.5,6.6,75.3,13.1l47.9,11.2
				c27.8,6.5,50.9,11.9,51.4,12c0.5,0.1,5.2,2.6,10.4,5.5c5.2,2.9,24.2,32.7,37.6,57.8l50,93.5c13.4,25.1,27.6,51.5,31.3,58.5
				C734.4,334,742.1,353.5,742.4,360.5z M812.6,124.1c-0.7,1.9-13,20.7-27.1,41.7c-14.2,21-63.7,57.6-77.1,32.4l-22.8-42.6
				c-13.5-25.2-24.8-46.3-25.2-47.1c-0.4-0.7,19.6-12.4,45.5-24.2l4-1.9c25.9-11.8,49.6-21.6,52.5-21.7c2.9-0.1,16.3,13.7,27.7,28
				c11.3,14.3,21.5,28,22.6,30.5c0,0,0,0,0,2.7C812.6,124.1,812.6,124.1,812.6,124.1z"/>
			<path d="M357.5,506.8c-6.1-12.2,0.1-22.3,13.8-22.3h117.3c13.7,0,19.9,10.1,13.8,22.3l-61.3,69.7c-6.1,12.3-16.1,12.3-22.3,0
				L357.5,506.8z"/>
			<path d="M430,656.3c0,0,8.3,7.6,18.4,16.8l39.8,36.4c10.2,9.2,21.2,10.2,24.6,2c3.4-8.1-3.1-21.1-14.4-28.8L460.7,657
				c-11.3-7.7-20.6-14.3-20.5-14.6c0-0.3,0.1-12.4,0.1-26.1V546c0-13.7-2.1-29.6-4.6-35.2c0,0,0,0-5.7,0c-5.7,0-5.7,0-5.7,0
				c-2.5,5.6-4.6,21.5-4.6,35.2v70.3c0,13.7,0,25.2,0,25.5c0,0.3-9.2,7.4-20.5,15.2l-37.7,25.7c-11.3,7.7-17.8,20.7-14.4,28.8
				c3.4,8.1,14.5,7.2,24.6-2l39.9-36.4C421.7,663.9,430,656.3,430,656.3z"/>
			<g>
				<path d="M211.7,322.4c-14.7,0.4-14.9,2.5-0.3,4.6l122.4,17.5c14.6,2.1,25.4,15.8,24,30.4l-15.6,54.6
					c-1.3,14.6,3.3,27.1,10.2,27.6c7,0.5,12.7,0.4,12.8-0.1c0-0.6,0.6-13.1,1.2-27.8l12.8-51.3c0.6-14.7,1.5-34.3,1.9-43.5
					c0.4-9.2-3.5-16.6-8.6-16.5c-5.2,0.2-21.4,0.6-36.1,1L211.7,322.4z"/>
				<path d="M523.7,318.9c-14.7-0.4-31-0.9-36.1-1c-5.2-0.2-9.1,7.3-8.7,16.5c0.4,9.2,1.3,28.8,1.9,43.5l12.8,51.3
					c0.6,14.7,1.2,27.2,1.3,27.8c0,0.6,5.8,0.7,12.7,0.1c7-0.5,11.6-12.9,10.2-27.6l-15.6-54.6c-1.3-14.6,9.5-28.4,24-30.4
					l122.4-17.5c14.6-2.1,14.5-4.1-0.3-4.6L523.7,318.9z"/>
			</g>
			<g>
				<path d="M321.7,340.9c0,9.4-7.6,17-17,17c-9.4,0-17-7.6-17-17c0-9.4,7.6-17,17-17C314.1,323.9,321.7,331.5,321.7,340.9z"/>
				<path d="M572.3,340.9c0,9.4-7.6,17-17,17c-9.4,0-17-7.6-17-17c0-9.4,7.6-17,17-17C564.7,323.9,572.3,331.5,572.3,340.9z"/>
			</g>
			<g>
				<g>
					<g>
						<path d="M362.5,550c-93.8,23.3-186.6,71.3-259,135.7c-5,4.4,1.2,11.3,6.5,7.7c82.4-54.9,158.9-102.8,254.5-131.7
							C371.7,559.6,370.1,548.2,362.5,550L362.5,550z"/>
					</g>
					<g>
						<path d="M365,583.4c-77.2,7.2-150.1,82.4-190.3,144.3c-2.6,4,2.6,9.3,6.4,5.8c56.9-53.9,103.2-124.4,185.6-140.6
							C372.9,591.7,371.1,582.8,365,583.4L365,583.4z"/>
					</g>
					<g>
						<path d="M371.8,615.8c-74.8,20-135.2,107.7-163.5,175.5c-2,4.7,4.7,7.8,7.6,4c47.1-62.5,80-140.8,158.8-170.3
							C379.8,623.1,377.1,614.4,371.8,615.8L371.8,615.8z"/>
					</g>
				</g>
				<g>
					<g>
						<path d="M494.4,561.5c95.8,29,173.3,77.3,255.8,132.3c5.6,3.7,10.6-4.1,5.8-8.3c-71.8-63.8-164.4-112-257.5-135.1
							C491.3,548.5,487,559.2,494.4,561.5L494.4,561.5z"/>
					</g>
					<g>
						<path d="M493.7,593c81.8,16.1,128.2,86.4,184.7,140c4.1,3.9,9.7-0.9,6.6-5.6c-40-61.6-113.3-136.9-190.4-144.1
							C488.3,582.7,487.7,591.8,493.7,593L493.7,593z"/>
					</g>
					<g>
						<path d="M485.7,625.2c78.6,29.5,111.6,108,158.6,170.5c3.1,4.1,9.1-0.3,7.2-4.7c-28.1-67.4-88.3-155.1-162.5-174.9
							C483.1,614.5,479.7,622.9,485.7,625.2L485.7,625.2z"/>
					</g>
				</g>
			</g>
			<g>
				<g>
					<path d="M296.7,156.7c0,18.9-12.3,34.3-27.4,34.3c-15.1,0-27.4-15.4-27.4-34.3c0-19,12.3-34.3,27.4-34.3
						C284.5,122.4,296.7,137.8,296.7,156.7z"/>
					<path d="M259.7,222.6c0,12.6-10.2,22.9-22.8,22.9c-12.6,0-22.9-10.2-22.9-22.9c0-12.6,10.2-22.9,22.9-22.9
						C249.5,199.7,259.7,210,259.7,222.6z"/>
					<path d="M363.9,148.1c-4.6,14.4-14.2,24.3-21.4,22c-7.2-2.3-9.4-15.9-4.7-30.3c4.6-14.4,14.2-24.3,21.4-22
						C366.3,120.1,368.5,133.7,363.9,148.1z"/>
					<path d="M329.4,229.6c0,7.6-7.2,13.7-16,13.7c-8.8,0-16-6.1-16-13.7c0-7.6,7.2-13.7,16-13.7
						C322.2,215.9,329.4,222.1,329.4,229.6z"/>
				</g>
				<g>
					<path d="M666.7,491.5c-5.6,11.3-1.1,25,10.3,30.7c11.3,5.6,25,1.1,30.7-10.2c5.6-11.3,1-25-10.3-30.7
						C686,475.5,672.3,480.1,666.7,491.5z"/>
					<path d="M672,433c-2.3,15,1.8,28.1,9.3,29.2c7.5,1.2,15.5-10,17.8-25c2.3-15-1.8-28.1-9.3-29.2
						C682.3,406.9,674.4,418.1,672,433z"/>
					<path d="M630,467.8c-3.4,6.8,0.3,15.5,8.2,19.4c7.9,4,17.1,1.7,20.4-5.1c3.4-6.8-0.3-15.5-8.2-19.4
						C642.5,458.7,633.3,461.1,630,467.8z"/>
				</g>
			</g>
		</g>
	</g>
</g>
</svg>
